<svg width="36" height="36" viewBox="0 0 36 36" fill="none" xmlns="http://www.w3.org/2000/svg">
<g clip-path="url(#clip0_409_30)">
<path d="M1.6872 14.3998H34.3128V11.9998H1.6872V14.3998ZM33.6 13.687V14.7406H36V13.687H33.6ZM29.7264 33.5998H6.2736V35.9998H29.7264V33.5998ZM2.4 14.7406V13.687H0V14.7406H2.4ZM6.9504 34.0174C3.95784 28.0321 2.39992 21.4323 2.4 14.7406H0C0 21.8062 1.644 28.7734 4.8048 35.0926L6.9504 34.0174ZM6.2736 33.5998C6.5616 33.5998 6.8232 33.763 6.9504 34.0174L4.8048 35.0926C4.94143 35.3651 5.15116 35.5943 5.41054 35.7545C5.66992 35.9147 5.96873 35.9996 6.2736 35.9998V33.5998ZM29.0496 34.0174C29.1125 33.8918 29.2091 33.7862 29.3287 33.7124C29.4482 33.6387 29.5859 33.5997 29.7264 33.5998V35.9998C30.3504 35.9998 30.9168 35.6494 31.1952 35.0926L29.0496 34.0174ZM33.6 14.7406C33.6 21.4318 32.04 28.0318 29.0496 34.0174L31.1952 35.0926C34.355 28.7736 36.0001 21.8056 36 14.7406H33.6ZM34.3128 14.3998C34.1238 14.3998 33.9425 14.3247 33.8088 14.191C33.6751 14.0574 33.6 13.8761 33.6 13.687H36C36 13.2395 35.8222 12.8104 35.5058 12.494C35.1894 12.1776 34.7603 11.9998 34.3128 11.9998V14.3998ZM1.6872 11.9998C1.23973 11.9998 0.810581 12.1776 0.494169 12.494C0.177758 12.8104 0 13.2395 0 13.687H2.4C2.4 13.8761 2.3249 14.0574 2.19123 14.191C2.05755 14.3247 1.87625 14.3998 1.6872 14.3998V11.9998ZM9.4296 13.8166L16.6296 1.81661L14.568 0.583008L7.368 12.583L9.4296 13.8166ZM19.3704 1.81661L26.5704 13.8166L28.6296 12.583L21.4296 0.583008L19.3704 1.81661ZM16.8 16.7998V28.7998H19.2V16.7998H16.8ZM12 23.9998H24V21.5998H12V23.9998Z" fill="black"/>
</g>
<defs>
<clipPath id="clip0_409_30">
<rect width="36" height="36" fill="white"/>
</clipPath>
</defs>
</svg>
