<svg width="21" height="21" viewBox="0 0 21 21" fill="none" xmlns="http://www.w3.org/2000/svg">
<path d="M0.209064 14.7857V6.21346L6.95846 10.4996L0.209064 14.7857ZM20.6253 17.2364C20.3271 17.9042 19.6488 18.3683 18.8592 18.3683H2.13897C1.35357 18.3683 0.675264 17.9063 0.374966 17.2448C0.267864 17.0096 0.209064 16.7471 0.209064 16.472L8.28776 11.3417L10.4991 12.7487L12.7125 11.3438L20.7891 16.472C20.7891 16.7429 20.7303 17.0012 20.6253 17.2364ZM20.7891 6.21346V14.7836L14.0397 10.4996L20.7891 6.21346ZM18.8592 2.63086C19.6488 2.63086 20.3271 3.09706 20.6253 3.76276C20.7303 3.99586 20.7891 4.25416 20.7891 4.52716L10.4991 11.0603L0.209064 4.52716C0.209064 4.25206 0.267864 3.98956 0.374966 3.75436C0.675264 3.09286 1.35357 2.63086 2.13897 2.63086H18.8592Z" fill="white"/>
</svg>
